<?xml version="1.0" standalone="no"?>
<!DOCTYPE svg PUBLIC "-//W3C//DTD SVG 20010904//EN"
 "http://www.w3.org/TR/2001/REC-SVG-20010904/DTD/svg10.dtd">
<svg version="1.0" xmlns="http://www.w3.org/2000/svg"
 width="960.000000pt" height="960.000000pt" viewBox="0 0 960.000000 960.000000"
 preserveAspectRatio="xMidYMid meet">
<metadata>
Created by potrace 1.13, written by Peter Selinger 2001-2015
</metadata>
<g transform="translate(0.000000,960.000000) scale(0.100000,-0.100000)"
fill="#000000" stroke="none">
<path d="M2880 6195 c0 -1367 4 -2395 9 -2395 5 0 15 7 22 17 8 9 91 84 184
168 94 83 339 302 545 486 207 184 517 460 689 614 173 154 350 311 393 349
l79 69 32 -30 c18 -16 156 -140 307 -274 258 -230 457 -406 1232 -1097 175
-156 320 -287 323 -293 4 -5 10 -9 16 -9 5 0 9 905 9 2395 l0 2395 -1920 0
-1920 0 0 -2395z"/>
<path d="M4253 4120 c-40 -24 -54 -50 -55 -102 -1 -73 55 -122 132 -114 60 6
100 49 100 107 0 103 -93 161 -177 109z"/>
<path d="M4743 4124 c-80 -40 -82 -168 -3 -209 83 -43 180 14 180 106 0 38
-31 87 -65 103 -41 20 -71 20 -112 0z"/>
<path d="M5230 4122 c-67 -33 -83 -126 -31 -184 27 -30 35 -33 86 -33 51 0 59
3 86 33 23 26 29 41 29 80 0 54 -18 85 -60 107 -38 20 -67 19 -110 -3z"/>
<path d="M3414 2005 c-193 -42 -338 -208 -351 -402 -10 -142 32 -258 128 -354
240 -241 650 -143 749 179 52 169 5 349 -122 467 -66 62 -138 99 -222 114 -74
14 -105 13 -182 -4z m232 -178 c101 -51 159 -147 158 -262 0 -244 -264 -379
-465 -239 -150 103 -163 323 -28 452 88 85 225 105 335 49z"/>
<path d="M6590 2006 c-226 -48 -386 -279 -351 -505 15 -95 53 -172 124 -248
171 -182 462 -186 641 -7 251 251 124 686 -221 759 -80 17 -119 17 -193 1z
m204 -167 c71 -26 147 -106 171 -180 35 -105 7 -227 -70 -304 -78 -77 -199
-105 -306 -70 -74 25 -159 110 -184 184 -78 236 154 458 389 370z"/>
<path d="M1659 1913 c16 -43 60 -161 98 -263 39 -102 96 -258 129 -347 32 -90
61 -163 64 -163 3 1 61 113 130 250 69 138 128 250 132 250 4 0 64 -113 133
-251 70 -138 129 -249 131 -247 2 2 19 47 38 99 19 52 89 238 155 414 67 176
121 323 121 328 0 4 -36 7 -81 5 l-81 -3 -85 -227 c-47 -126 -88 -228 -92
-228 -3 0 -58 102 -121 225 -63 124 -117 225 -120 225 -3 0 -56 -101 -118
-225 -62 -124 -116 -224 -120 -221 -5 3 -46 106 -92 230 l-85 226 -82 0 -82 0
28 -77z"/>
<path d="M4330 1561 l0 -431 75 0 75 0 0 145 c0 113 3 145 13 145 7 0 53 -65
101 -145 l88 -145 90 0 90 0 -25 43 c-14 23 -57 94 -95 157 -63 102 -69 116
-54 125 9 6 40 33 69 62 40 40 56 65 69 109 38 131 -24 271 -149 336 -37 19
-61 23 -194 26 l-153 4 0 -431z m288 255 c37 -20 62 -66 62 -114 0 -34 -6 -49
-34 -79 -31 -34 -38 -37 -100 -41 l-66 -4 0 126 0 126 58 0 c31 -1 67 -6 80
-14z"/>
<path d="M5210 1560 l0 -430 139 0 c76 0 163 5 192 10 225 42 380 264 341 490
-15 89 -50 159 -113 225 -98 104 -192 135 -411 135 l-148 0 0 -430z m365 246
c96 -44 155 -138 155 -246 0 -103 -48 -184 -138 -237 -39 -23 -60 -28 -139
-31 l-93 -4 0 271 0 271 83 0 c65 0 92 -5 132 -24z"/>
<path d="M7502 1563 l3 -428 75 0 75 0 3 173 2 172 115 0 115 0 0 75 0 75
-115 0 -115 0 0 105 0 105 155 0 155 0 0 75 0 75 -235 0 -235 0 2 -427z"/>
</g>
</svg>
